# xmcd
#
# Track frame offsets: 
#        150
#        18036
#        34034
#        53071
#        68139
#        85806
#        102391
#        121828
#        136642
#        149763
#        170498
#
# Disc length: 2510 seconds
#
# Revision: 1
# Processed by: cddbd v1.5.2PL0 Copyright (c) Steve Scherf et al.
# Submitted via: ExactAudioCopy v1.3
#
DISCID=8c09cc0b
DTITLE=Old 97's - Graveyard Whistling
DYEAR=2017
DGENRE=Alternative
TTITLE0=I Don't Wanna Die in This Town
TTITLE1=Bad Luck Charm
TTITLE2=All Who Wander
TTITLE3=Jesus Loves You
TTITLE4=Good with God
TTITLE5=She Hates Everybody
TTITLE6=Irish Whiskey Pretty Girls
TTITLE7=Nobody
TTITLE8=Drinkin' Song
TTITLE9=Turns Out I'm Trouble
TTITLE10=Those Were the Days
EXTD=
EXTT0=
EXTT1=
EXTT2=
EXTT3=
EXTT4=
EXTT5=
EXTT6=
EXTT7=
EXTT8=
EXTT9=
EXTT10=
PLAYORDER=
